<?xml version="1.0" encoding="UTF-8" standalone="no"?>
<!DOCTYPE svg PUBLIC "-//W3C//DTD SVG 1.1//EN" "http://www.w3.org/Graphics/SVG/1.1/DTD/svg11.dtd">
<svg width="100%" height="100%" viewBox="0 0 525 525" version="1.1" xmlns="http://www.w3.org/2000/svg" xmlns:xlink="http://www.w3.org/1999/xlink" xml:space="preserve" xmlns:serif="http://www.serif.com/" style="fill-rule:evenodd;clip-rule:evenodd;stroke-linecap:round;stroke-linejoin:round;stroke-miterlimit:1.5;">
    <rect id="Artboard1" x="0" y="0" width="525" height="525" style="fill:none;"/>
    <g id="Artboard11" serif:id="Artboard1">
        <rect x="0" y="0" width="525" height="525" style="fill:rgb(76,25,21);"/>
        <g transform="matrix(1.71752,0,0,1.71752,-181.684,-193.398)">
            <g transform="matrix(0.98617,0,0,0.988238,3.66711,2.95579)">
                <path d="M299.197,142.666L255.619,116.977L212.041,142.666L212.041,388.325L255.619,413.678L299.197,388.325L299.197,142.666Z" style="fill:none;stroke:rgb(198,174,142);stroke-width:2.06px;"/>
            </g>
            <g transform="matrix(-0.493085,0.854048,-0.855839,-0.494119,608.87,177.955)">
                <path d="M299.197,142.666L255.619,116.977L212.041,142.666L212.041,388.325L255.619,413.678L299.197,388.325L299.197,142.666Z" style="fill:none;stroke:rgb(198,174,142);stroke-width:2.06px;"/>
            </g>
            <g transform="matrix(-0.493085,-0.854048,0.855839,-0.494119,154.715,614.576)">
                <path d="M299.197,142.666L255.619,116.977L212.041,142.666L212.041,388.325L255.619,413.678L299.197,388.325L299.197,142.666Z" style="fill:none;stroke:rgb(198,174,142);stroke-width:2.06px;"/>
            </g>
            <g transform="matrix(1.02047,0,0,1.04374,-5.46086,-12.5667)">
                <path d="M214.004,240.833L255.751,217.54L297.814,240.89L298.084,290.339L255.751,313.668L213.858,289.427L214.004,240.833Z" style="fill:rgb(198,174,142);"/>
            </g>
        </g>
    </g>
</svg>
